# xmcd
#
# Track frame offsets: 
#        150
#        13404
#        30669
#        47458
#        70002
#        88930
#        99214
#        106451
#        119575
#        139344
#        146835
#        161507
#        175553
#        189464
#        198767
#        210003
#        220674
#        239682
#        251985
#        265581
#
# Disc length: 3738 seconds
#
# Revision: 3
# Processed by: cddbd v1.5.2PL0 Copyright (c) Steve Scherf et al.
# Submitted via: ExactAudioCopy v0.99pb5
#
DISCID=1b0e9814
DTITLE=Glenn Miller - [CD 09-10] - Tuxedo Junction
DYEAR=1900
DGENRE=Jazz
TTITLE0=In The Mood
TTITLE1=Star Dust
TTITLE2=Tuxedo Junction
TTITLE3=Pistol Packin' Mama
TTITLE4=Stormy Weather  (Keeps Raining All The Time)
TTITLE5=Jeep Jockey Jump
TTITLE6=My Blue Heaven
TTITLE7=How Sweet You Are
TTITLE8=St. Louis Blues March
TTITLE9=Absent Minded
TTITLE10=Trail End Charlie
TTITLE11=Speak Low
TTITLE12=G.I. Jive
TTITLE13=Over There
TTITLE14=Mission To Moscow
TTITLE15=Enlisted Men's Mess
TTITLE16=Oh! What A Beautiful Mornin'
TTITLE17=Victoty Polka
TTITLE18=Juke Box Saturday Night
TTITLE19=They Are Yanks
EXTD=
EXTT0=
EXTT1=
EXTT2=
EXTT3=
EXTT4=
EXTT5=
EXTT6=
EXTT7=
EXTT8=
EXTT9=
EXTT10=
EXTT11=
EXTT12=
EXTT13=
EXTT14=
EXTT15=
EXTT16=
EXTT17=
EXTT18=
EXTT19=
PLAYORDER=
